HIERARCHY
ROOT Root
{
	OFFSET 0.00000 0.00000 0.00000
	CHANNELS 6 Xposition Yposition Zposition Zrotation Xrotation Yrotation
	JOINT Hips
	{
		OFFSET 0 0 0	
		CHANNELS 3 Zrotation Xrotation Yrotation
		JOINT Spine
		{
			OFFSET 0 4 0	
			CHANNELS 3 Zrotation Xrotation Yrotation
			JOINT Spine1
			{
				OFFSET 0 19.4 0	
				CHANNELS 3 Zrotation Xrotation Yrotation
				JOINT Spine2
				{
					OFFSET 0 16.6 0	
					CHANNELS 3 Zrotation Xrotation Yrotation
					JOINT LeftCollar
					{
						OFFSET 0 10 0	
						CHANNELS 3 Zrotation Xrotation Yrotation
						JOINT LeftArm
						{
							OFFSET 15.6 -2 3	
							CHANNELS 3 Zrotation Xrotation Yrotation
							JOINT LeftForeArm
							{
								OFFSET 3.5 -27 -1	
								CHANNELS 3 Zrotation Xrotation Yrotation
								JOINT LeftHand
								{
									OFFSET 1 -27 1	
									CHANNELS 3 Zrotation Xrotation Yrotation
									End Site
									{
										OFFSET 0 -15 0
									}
								}
							}
						}
					}
					JOINT RightCollar
					{
						OFFSET 0 10 0	
						CHANNELS 3 Zrotation Xrotation Yrotation
						JOINT RightArm
						{
							OFFSET -15.6 -2 3	
							CHANNELS 3 Zrotation Xrotation Yrotation
							JOINT RightForeArm
							{
								OFFSET -3.5 -27 -1	
								CHANNELS 3 Zrotation Xrotation Yrotation
								JOINT RightHand
								{
									OFFSET -1 -27 1	
									CHANNELS 3 Zrotation Xrotation Yrotation
									End Site
									{
										OFFSET 0 -15 0
									}
								}
							}
						}
					}
					JOINT Neck
					{
						OFFSET 0 10 0	
						CHANNELS 3 Zrotation Xrotation Yrotation
						JOINT Head
						{
							OFFSET 0 12.7 3	
							CHANNELS 3 Zrotation Xrotation Yrotation
							End Site
							{
								OFFSET 0 12.7 3
							}
						}
					}
				}
			}
		}
	}
	JOINT LeftHip
	{
		OFFSET 0 0 0	
		CHANNELS 3 Zrotation Xrotation Yrotation
		JOINT LeftUpLeg
		{
			OFFSET 8.8 -6 0	
			CHANNELS 3 Zrotation Xrotation Yrotation
			JOINT LeftLeg
			{
				OFFSET 0 -39 2	
				CHANNELS 3 Zrotation Xrotation Yrotation
				JOINT LeftFoot
				{
					OFFSET 0 -43 -2	
					CHANNELS 3 Zrotation Xrotation Yrotation
					JOINT LeftFootFront
					{
						OFFSET 0 -7 8.5	
						CHANNELS 3 Zrotation Xrotation Yrotation
						End Site
						{
							OFFSET 0 -0.5 9
						}
					}
				}
				JOINT LeftHeel
				{
					OFFSET 0 -43 -2	
					CHANNELS 3 Zrotation Xrotation Yrotation
					End Site
					{
						OFFSET 0 -7.5 -5
					}
				}
			}
		}
	}
	JOINT RightHip
	{
		OFFSET 0 0 0	
		CHANNELS 3 Zrotation Xrotation Yrotation
		JOINT RightUpLeg
		{
			OFFSET -8.8 -6 0	
			CHANNELS 3 Zrotation Xrotation Yrotation
			JOINT RightLeg
			{
				OFFSET 0 -39 2	
				CHANNELS 3 Zrotation Xrotation Yrotation
				JOINT RightFoot
				{
					OFFSET 0 -43 -2	
					CHANNELS 3 Zrotation Xrotation Yrotation
					JOINT RightFootFront
					{
						OFFSET 0 -7 8.5	
						CHANNELS 3 Zrotation Xrotation Yrotation
						End Site
						{
							OFFSET 0 -0.5 9
						}
					}
				}
				JOINT RightHeel
				{
					OFFSET 0 -43 -2	
					CHANNELS 3 Zrotation Xrotation Yrotation
					End Site
					{
						OFFSET 0 -7.5 -5
					}
				}
			}
		}
	}
}
MOTION
Frames: 15
Frame Time: 0.025
0.67177 95.407 -0.36481 -0 0 -0 -0.92458 5.2491 -15.766 -3.6798 -2.4481 -0.95755 -3.6798 -2.4481 -0.95755 -3.0879 -2.0607 -0.79372 -0 0 -0 16.134 -2.086 2.8925 0.71313 -2.1003 -9.8299 12.077 -2.5157 -27.969 -0 0 -0 17.751 1.7818 -3.4537 -14.917 -15.335 3.6908 -11.72 13.012 27.076 1.7144 4.2838 -29.261 1.7144 4.2838 -29.261 -0.92458 5.2491 -15.766 3.2312 -8.4149 -13.735 1.4803 6.1316 13.62 -6.0514 -3.0572 14.545 0.029685 0.002641 0.003187 -0 0 -0 -0.92458 5.2491 -15.766 1.569 -12.262 -17.498 -13.358 4.9747 10.067 11.985 0.39894 24.554 -0 0 -0 -0 0 -0 
0.80817 95.382 -0.46242 -0 0 -0 -0.75526 5.3811 -16.542 -3.7155 -2.3365 -1.0214 -3.7155 -2.3365 -1.0214 -3.1179 -1.9672 -0.84777 -0 0 -0 16.343 -2.2176 3.0332 0.8323 -2.4842 -9.6954 12.021 -2.5607 -27.937 -0 0 -0 17.799 1.6217 -3.5426 -15.225 -15.411 3.1398 -11.533 12.692 27.06 1.7052 3.9992 -29.221 1.7052 3.9992 -29.221 -0.75526 5.3811 -16.542 3.0209 -9.0931 -13.403 1.2936 6.963 14.118 -5.8866 -3.3241 14.449 0.030513 0.0037016 0.0031992 -0 0 -0 -0.75526 5.3811 -16.542 1.4892 -12.679 -17.296 -13.451 5.0702 10.331 12.067 0.51225 24.89 -0 0 -0 -0 0 -0 
0.94868 95.361 -0.58036 -0 0 -0 -0.57232 5.5666 -17.357 -3.757 -2.2222 -1.0942 -3.757 -2.2222 -1.0942 -3.1528 -1.8715 -0.90929 -0 0 -0 16.596 -2.3989 3.2023 0.99512 -2.8441 -9.5269 11.973 -2.5911 -27.897 -0 0 -0 17.842 1.4643 -3.5641 -15.549 -15.485 2.4719 -11.299 12.464 26.968 1.7406 3.6757 -29.146 1.7406 3.6757 -29.146 -0.57232 5.5666 -17.357 2.9734 -9.6411 -12.747 1.0709 7.482 14.294 -5.7225 -3.5029 14.429 0.031375 0.0040492 0.0032781 -0 0 -0 -0.57232 5.5666 -17.357 1.4305 -13.129 -17.111 -13.52 5.0538 10.642 12.139 0.7029 25.209 -0.020971 -0.04234 0.16375 -0 0 -0 
1.0889 95.343 -0.72189 -0 0 -0 -0.38722 5.7911 -18.217 -3.8029 -2.1029 -1.1771 -3.8029 -2.1029 -1.1771 -3.1913 -1.7718 -0.97931 -0 0 -0 16.888 -2.6201 3.4016 1.2109 -3.1712 -9.3397 11.954 -2.6171 -27.856 -0 0 -0 17.901 1.3355 -3.5277 -15.867 -15.588 1.7111 -11.065 12.331 26.845 1.8095 3.3172 -29.046 1.8095 3.3172 -29.046 -0.38722 5.7911 -18.217 3.1011 -9.9926 -11.84 0.81493 7.6674 14.181 -5.5635 -3.6155 14.529 0.031652 0.0035902 0.0037187 -0 0 -0 -0.38722 5.7911 -18.217 1.4191 -13.669 -16.931 -13.615 4.9926 11.072 12.218 0.90659 25.624 0.015161 -0.016537 0.0030305 -0 0 -0 
1.2243 95.332 -0.88993 -0 0 -0 -0.20166 6.045 -19.128 -3.8488 -1.9662 -1.2743 -3.8488 -1.9662 -1.2743 -3.2299 -1.6574 -1.0615 -0 0 -0 17.197 -2.8808 3.6482 1.4862 -3.4818 -9.1248 11.973 -2.6555 -27.794 -0 0 -0 17.96 1.22 -3.4435 -16.167 -15.736 0.91645 -10.836 12.267 26.705 1.9036 2.9111 -28.928 1.9036 2.9111 -28.928 -0.20166 6.045 -19.128 3.332 -10.207 -10.899 0.54993 7.6296 14.043 -5.4216 -3.6739 14.691 0.031077 0.0027842 0.0047616 -0 0 -0 -0.20166 6.045 -19.128 1.4554 -14.294 -16.78 -13.743 4.9099 11.495 12.326 1.2185 25.966 0.016018 -0.018038 0.0030234 -0 0 -0 
1.3505 95.326 -1.0866 -0 0 -0 -0.0050777 6.3419 -20.101 -3.898 -1.8026 -1.3882 -3.898 -1.8026 -1.3882 -3.2712 -1.5206 -1.1578 -0 0 -0 17.521 -3.1792 3.9627 1.8222 -3.803 -8.8619 12.026 -2.7209 -27.673 -0 0 -0 17.99 1.0827 -3.2992 -16.422 -15.931 0.13635 -10.586 12.238 26.519 2.0343 2.4391 -28.785 2.0343 2.4391 -28.785 -0.0050777 6.3419 -20.101 3.577 -10.416 -10.138 0.31566 7.5123 14.133 -5.313 -3.6814 14.872 0.031009 0.0022737 0.0054112 -0 0 -0 -0.0050777 6.3419 -20.101 1.5342 -14.998 -16.654 -13.887 4.8025 11.765 12.427 1.6146 26.545 0.0015178 -0.022091 0.0030279 -0 0 -0 
1.4635 95.327 -1.3129 -0 0 -0 0.21983 6.7166 -21.159 -3.9565 -1.6229 -1.5125 -3.9565 -1.6229 -1.5124 -3.3205 -1.3703 -1.2629 -0 0 -0 17.869 -3.4787 4.3322 2.2075 -4.1623 -8.5087 12.104 -2.8194 -27.48 -0 0 -0 17.975 0.9066 -3.0986 -16.599 -16.167 -0.55721 -10.294 12.241 26.239 2.2121 1.9027 -28.607 2.2121 1.9027 -28.607 0.21983 6.7166 -21.159 3.786 -10.754 -9.6216 0.15231 7.4215 14.507 -5.2503 -3.6389 15.092 0.031007 0.0022187 0.0050494 -0 0 -0 0.21983 6.7166 -21.159 1.6564 -15.819 -16.533 -14.03 4.6717 11.906 12.499 2.0864 27.339 -0.023539 -0.012686 0.0030627 -0 0 -0 
1.5607 95.333 -1.5684 -0 0 -0 0.48355 7.2028 -22.331 -4.0248 -1.4538 -1.6311 -4.0248 -1.4538 -1.6311 -3.378 -1.229 -1.3633 -0 0 -0 18.246 -3.7163 4.7107 2.6173 -4.5751 -8.0228 12.2 -2.9438 -27.242 -0 0 -0 17.908 0.70141 -2.8788 -16.667 -16.432 -1.0699 -9.9586 12.29 25.844 2.4269 1.3336 -28.387 2.4269 1.3336 -28.387 0.48355 7.2028 -22.331 3.9798 -11.283 -9.2291 0.069479 7.3791 15.045 -5.2353 -3.5453 15.379 0.030559 0.0018609 0.0051194 -0 0 -0 0.48355 7.2028 -22.331 1.8211 -16.812 -16.403 -14.149 4.5417 12.027 12.513 2.6198 28.259 -0.033618 -0.0012713 0.0031058 -0 0 -0 
1.64 95.345 -1.851 -0 0 -0 0.77461 7.809 -23.628 -4.093 -1.3174 -1.729 -4.093 -1.3174 -1.729 -3.4354 -1.1149 -1.4461 -0 0 -0 18.626 -3.8516 5.0504 3.0418 -5.0276 -7.4081 12.308 -3.0805 -26.998 -0 0 -0 17.795 0.48927 -2.6766 -16.609 -16.698 -1.36 -9.6038 12.376 25.36 2.6516 0.77659 -28.127 2.6516 0.77659 -28.127 0.77461 7.809 -23.628 4.2638 -11.958 -8.799 0.0041861 7.3319 15.612 -5.2549 -3.4061 15.736 0.03094 0.0012161 0.0054182 -0 0 -0 0.77461 7.809 -23.628 2.0354 -17.989 -16.277 -14.229 4.4688 12.212 12.476 3.1675 29.256 -0.032171 0.0039277 0.0031123 -0 0 -0 
1.7008 95.36 -2.1571 -0 0 -0 1.0637 8.5182 -25.025 -4.1443 -1.2259 -1.8015 -4.1443 -1.2259 -1.8015 -3.4785 -1.0386 -1.5073 -0 0 -0 18.97 -3.8702 5.3109 3.4882 -5.4829 -6.7132 12.415 -3.211 -26.784 -0 0 -0 17.657 0.31133 -2.5221 -16.448 -16.939 -1.444 -9.2538 12.478 24.856 2.8477 0.27614 -27.836 2.8477 0.27614 -27.836 1.0637 8.5182 -25.025 4.7417 -12.699 -8.2766 -0.12379 7.2266 16.181 -5.2899 -3.2308 16.133 0.031091 0.00084677 0.0050398 -0 0 -0 1.0637 8.5182 -25.025 2.294 -19.303 -16.21 -14.25 4.4993 12.498 12.399 3.6652 30.326 -0.021208 0.010331 0.003101 -0 0 -0 
1.7423 95.377 -2.4819 -0 0 -0 1.3234 9.2994 -26.474 -4.165 -1.1836 -1.8495 -4.165 -1.1836 -1.8495 -3.4959 -1.0033 -1.5479 -0 0 -0 19.245 -3.7795 5.4432 3.9578 -5.8945 -5.9929 12.519 -3.327 -26.626 -0 0 -0 17.522 0.19736 -2.4537 -16.239 -17.129 -1.3657 -8.9054 12.572 24.424 2.9836 -0.12711 -27.528 2.9836 -0.1271 -27.528 1.3234 9.2994 -26.474 5.4115 -13.449 -7.7541 -0.32006 7.0629 16.838 -5.3308 -3.0292 16.534 0.030191 0.0016728 0.0047373 -0 0 -0 1.3234 9.2994 -26.474 2.5585 -20.636 -16.337 -14.169 4.6016 12.793 12.28 4.1083 31.624 -0.0055223 0.014913 0.0030902 -0 0 -0 
1.7635 95.393 -2.8187 -0 0 -0 1.5452 10.12 -27.939 -4.1495 -1.1849 -1.8704 -4.1495 -1.1849 -1.8705 -3.4829 -1.0044 -1.5654 -0 0 -0 19.448 -3.6165 5.4177 4.4291 -6.2204 -5.3098 12.62 -3.4288 -26.525 -0 0 -0 17.422 0.14863 -2.4981 -16.047 -17.234 -1.2079 -8.539 12.628 24.139 3.0524 -0.41121 -27.212 3.0524 -0.41122 -27.212 1.5452 10.12 -27.939 6.1882 -14.221 -7.358 -0.52523 6.9193 17.671 -5.3874 -2.8166 16.924 0.029751 0.0035685 0.0043088 -0 0 -0 1.5452 10.12 -27.939 2.7797 -21.857 -16.85 -13.961 4.6852 12.949 12.111 4.5277 33.412 -0.0010866 0.016733 0.0030795 -0 0 -0 
1.7616 95.406 -3.1602 -0 0 -0 1.7452 10.95 -29.41 -4.1 -1.2247 -1.8543 -4.1 -1.2247 -1.8543 -3.4413 -1.0377 -1.5517 -0 0 -0 19.59 -3.4216 5.249 4.8594 -6.4525 -4.7487 12.705 -3.5095 -26.469 -0 0 -0 17.36 0.16325 -2.6581 -15.933 -17.25 -1.0681 -8.1266 12.649 24.016 3.0623 -0.57743 -26.905 3.0623 -0.57743 -26.905 1.7452 10.95 -29.41 6.9942 -15.065 -7.0975 -0.70211 6.8941 18.672 -5.4642 -2.6106 17.295 0.03025 0.0047591 0.003628 -0 0 -0 1.7452 10.95 -29.41 2.8805 -22.954 -17.85 -13.613 4.7559 12.967 11.883 4.9325 35.759 -0.0015179 0.017184 0.0031016 -0 0 -0 
1.7326 95.414 -3.4983 -0 0 -0 1.9563 11.751 -30.891 -4.0226 -1.2967 -1.791 -4.0226 -1.2967 -1.791 -3.3762 -1.0978 -1.4984 -0 0 -0 19.669 -3.216 4.9742 5.2015 -6.6347 -4.3663 12.75 -3.5561 -26.44 -0 0 -0 17.309 0.23335 -2.9229 -15.939 -17.214 -0.99183 -7.6422 12.685 24.003 3.018 -0.64388 -26.64 3.018 -0.64388 -26.64 1.9563 11.751 -30.891 7.774 -15.962 -6.8664 -0.84687 6.9937 19.759 -5.5465 -2.4181 17.615 0.030935 0.0044149 0.0037082 -0 0 -0 1.9563 11.751 -30.891 2.6854 -24.057 -19.27 -13.098 5.0342 12.585 11.599 5.3405 38.846 0.00046826 0.016826 0.0030873 -0 0 -0 
1.6706 95.412 -3.8254 -0 0 -0 2.2298 12.482 -32.388 -3.9318 -1.3898 -1.6781 -3.9318 -1.3898 -1.6781 -3.2999 -1.1752 -1.4032 -0 0 -0 19.668 -3.0137 4.6219 5.4191 -6.8318 -4.1366 12.752 -3.5673 -26.433 -0 0 -0 17.25 0.33242 -3.2815 -16.085 -17.171 -0.98698 -7.0929 12.789 24.044 2.9209 -0.64852 -26.449 2.9209 -0.64853 -26.449 2.2298 12.482 -32.388 8.4859 -16.817 -6.5311 -0.96129 7.1388 20.792 -5.6339 -2.2507 17.887 0.030783 0.0031408 0.0043747 -0 0 -0 2.2298 12.482 -32.388 1.9621 -25.266 -21.006 -12.369 5.8009 10.962 11.211 5.8039 43.371 0.0025661 0.016389 0.0030971 -0 0 -0 
